<svg width="16" height="16" viewBox="0 0 16 16" fill="none" xmlns="http://www.w3.org/2000/svg">
<path fill-rule="evenodd" clip-rule="evenodd" d="M6.55527 15H1.28894C0.947095 15 0.619247 14.8548 0.377523 14.5965C0.135799 14.3381 0 13.9877 0 13.6223V2.37771C0 2.01232 0.135799 1.66189 0.377523 1.40352C0.619247 1.14515 0.947095 1 1.28894 1H14.7111C15.0529 1 15.3808 1.14515 15.6225 1.40352C15.8642 1.66189 16 2.01232 16 2.37771V5.45763L15.9655 5.42251C15.7764 5.23032 15.5249 5.11675 15.2563 5.10365L13.995 5.0437V3.37771C13.995 3.29722 13.9651 3.22003 13.9118 3.16312C13.8586 3.10621 13.7864 3.07424 13.7111 3.07424H2.28894C2.21408 3.07495 2.14251 3.10723 2.0898 3.16407C2.0371 3.2209 2.00753 3.29769 2.00754 3.37771V12.6223C2.00753 12.7023 2.0371 12.7791 2.0898 12.8359C2.14251 12.8928 2.21408 12.9251 2.28894 12.9258H5.00075C4.98999 13.2188 5.0945 13.5155 5.31429 13.7389L6.55527 15ZM3.01963 5.49018C3.01963 6.31319 3.68681 6.98037 4.50982 6.98037C5.33282 6.98037 6 6.31319 6 5.49018C6 4.66718 5.33282 4 4.50982 4C3.68681 4 3.01963 4.66718 3.01963 5.49018Z" fill="#70717A"/>
<path d="M15.7697 8.27203L13.8325 6.30179C13.6974 6.16451 13.5178 6.08339 13.3259 6.07403L11.7832 6.00072C11.5699 5.99136 11.3565 6.07404 11.2045 6.22847L6.2245 11.1391C5.92517 11.4433 5.92517 11.9378 6.2245 12.242L9.69824 15.7722C9.84713 15.9236 10.0436 16 10.2416 16C10.4381 16 10.6346 15.9236 10.785 15.7722L15.7758 10.8491C15.9201 10.704 16.0015 10.5012 15.9999 10.2953L15.9953 8.82114C15.9938 8.61366 15.914 8.41866 15.7697 8.27203Z" fill="#70717A"/>
</svg>
